<svg width="40" height="40" viewBox="0 0 40 40" fill="none" xmlns="http://www.w3.org/2000/svg">
<mask id="mask0_688_2050" style="mask-type:alpha" maskUnits="userSpaceOnUse" x="0" y="0" width="40" height="40">
<path fill-rule="evenodd" clip-rule="evenodd" d="M40 20C40 31.0456 31.0456 40 20 40C8.9544 40 0 31.0456 0 20C0 8.9544 8.9544 0 20 0C31.0456 0 40 8.9544 40 20Z" fill="#FF5A4A"/>
</mask>
<g mask="url(#mask0_688_2050)">
<rect width="40" height="40" fill="#7D7D7D"/>
</g>
<mask id="mask1_688_2050" style="mask-type:alpha" maskUnits="userSpaceOnUse" x="11" y="11" width="19" height="20">
<path fill-rule="evenodd" clip-rule="evenodd" d="M20.4355 11.7392C19.8589 11.7392 19.3059 11.9682 18.8982 12.376C18.4905 12.7837 18.2615 13.3366 18.2615 13.9132C18.2615 14.4898 18.4905 15.0427 18.8982 15.4505C19.3059 15.8582 19.8589 16.0872 20.4355 16.0872C21.0121 16.0872 21.565 15.8582 21.9727 15.4505C22.3804 15.0427 22.6095 14.4898 22.6095 13.9132C22.6095 13.3366 22.3804 12.7837 21.9727 12.376C21.565 11.9682 21.0121 11.7392 20.4355 11.7392ZM13.4787 11.7392C12.9021 11.7392 12.3491 11.9682 11.9414 12.376C11.5337 12.7837 11.3047 13.3366 11.3047 13.9132C11.3047 14.4898 11.5337 15.0427 11.9414 15.4505C12.3491 15.8582 12.9021 16.0872 13.4787 16.0872C14.0553 16.0872 14.6082 15.8582 15.0159 15.4505C15.4236 15.0427 15.6527 14.4898 15.6527 13.9132C15.6527 13.3366 15.4236 12.7837 15.0159 12.376C14.6082 11.9682 14.0553 11.7392 13.4787 11.7392ZM27.3923 11.7392C27.1033 11.7337 26.8161 11.7858 26.5475 11.8926C26.2788 11.9993 26.0342 12.1586 25.8279 12.361C25.6215 12.5634 25.4576 12.8049 25.3457 13.0715C25.2338 13.338 25.1762 13.6241 25.1762 13.9132C25.1762 14.2023 25.2338 14.4884 25.3457 14.7549C25.4576 15.0215 25.6215 15.263 25.8279 15.4654C26.0342 15.6678 26.2788 15.8271 26.5475 15.9338C26.8161 16.0406 27.1033 16.0927 27.3923 16.0872C27.9616 16.0763 28.504 15.8424 28.9028 15.4359C29.3016 15.0294 29.525 14.4827 29.525 13.9132C29.525 13.3437 29.3016 12.797 28.9028 12.3905C28.504 11.984 27.9616 11.7501 27.3923 11.7392ZM20.4355 18.696C20.1465 18.6905 19.8593 18.7426 19.5907 18.8494C19.322 18.9561 19.0774 19.1154 18.8711 19.3178C18.6647 19.5202 18.5008 19.7617 18.3889 20.0283C18.277 20.2948 18.2194 20.5809 18.2194 20.87C18.2194 21.1591 18.277 21.4452 18.3889 21.7117C18.5008 21.9782 18.6647 22.2198 18.8711 22.4222C19.0774 22.6246 19.322 22.7839 19.5907 22.8906C19.8593 22.9974 20.1465 23.0495 20.4355 23.044C21.0048 23.0331 21.5472 22.7992 21.946 22.3927C22.3448 21.9862 22.5682 21.4395 22.5682 20.87C22.5682 20.3005 22.3448 19.7538 21.946 19.3473C21.5472 18.9408 21.0048 18.7069 20.4355 18.696ZM20.4355 25.652C19.8588 25.652 19.3057 25.8811 18.898 26.2889C18.4902 26.6966 18.2611 27.2497 18.2611 27.8264C18.2611 28.4031 18.4902 28.9562 18.898 29.3639C19.3057 29.7717 19.8588 30.0008 20.4355 30.0008C21.0122 30.0008 21.5652 29.7717 21.973 29.3639C22.3808 28.9562 22.6099 28.4031 22.6099 27.8264C22.6099 27.2497 22.3808 26.6966 21.973 26.2889C21.5652 25.8811 21.0122 25.652 20.4355 25.652Z" fill="white"/>
</mask>
<g mask="url(#mask1_688_2050)">
<rect width="40" height="40" fill="#353535"/>
</g>
</svg>
