<svg width="25" height="26" viewBox="0 0 25 26" fill="none" xmlns="http://www.w3.org/2000/svg">
<path d="M5.05107 3.44118H12.0223V4.875H5.33111L4.37523 5.83088V20.1691L5.33111 21.125H19.6693L20.6252 20.1691V13.4779H22.0591V20.4492L22.0217 20.4865L21.9844 20.9719L21.723 21.5693L21.2189 22.1108L20.6962 22.4095L20.3228 22.5215H19.9867L19.9494 22.5588H5.05107L5.01373 22.5215L4.52832 22.4841L3.93089 22.2228L3.38948 21.7187L3.09076 21.1959L2.97875 20.8226V20.4865L2.94141 20.4492V5.55084V5.35294L3.01608 5.02809L3.27746 4.43066L3.78154 3.88925L4.30429 3.59053L4.67768 3.47852L5.05107 3.44118Z" fill="#7D7D7D" stroke="#7D7D7D"/>
<path d="M14.8656 3.44118H22.0587V10.6103H20.6201V5.83088L11.9884 14.9118L11.0293 13.9559L19.661 4.875H18.7019H14.8656V3.44118Z" fill="#7D7D7D" stroke="#7D7D7D"/>
</svg>
